<svg width="233" height="36" viewBox="0 0 233 36" fill="none" xmlns="http://www.w3.org/2000/svg">
<path d="M5.376 1.4V0.799997H5.25371L5.14118 0.847857L5.376 1.4ZM16.896 1.4H17.496V0.799997H16.896V1.4ZM16.896 7.16V7.76H17.496V7.16H16.896ZM7.68 7.16V6.56H7.30918L7.14334 6.89167L7.68 7.16ZM7.536 7.448L6.99934 7.17967L6.85881 7.46074L7.00981 7.73632L7.536 7.448ZM15.216 21.464L14.6898 21.7523L14.6918 21.7559L15.216 21.464ZM14.352 35V35.6H14.5415L14.6966 35.4912L14.352 35ZM1.632 35H1.032V35.6H1.632V35ZM1.632 29.432V28.832H1.032V29.432H1.632ZM11.568 29.432V30.032H11.9388L12.1047 29.7003L11.568 29.432ZM11.712 29.144L12.2487 29.4123L12.3904 29.1288L12.2361 28.8519L11.712 29.144ZM3.072 13.64L2.54786 13.932L2.54789 13.9321L3.072 13.64ZM5.376 2H16.896V0.799997H5.376V2ZM16.296 1.4V7.16H17.496V1.4H16.296ZM16.896 6.56H7.68V7.76H16.896V6.56ZM7.14334 6.89167L6.99934 7.17967L8.07266 7.71633L8.21666 7.42833L7.14334 6.89167ZM7.00981 7.73632L14.6898 21.7523L15.7422 21.1757L8.06219 7.15968L7.00981 7.73632ZM14.6918 21.7559C16.2561 24.5652 16.968 26.591 16.968 27.896H18.168C18.168 26.257 17.3119 23.9948 15.7402 21.1721L14.6918 21.7559ZM16.968 27.896C16.968 30.9841 15.9533 33.1438 14.0074 34.5088L14.6966 35.4912C17.0387 33.8482 18.168 31.2719 18.168 27.896H16.968ZM14.352 34.4H1.632V35.6H14.352V34.4ZM2.232 35V29.432H1.032V35H2.232ZM1.632 30.032H11.568V28.832H1.632V30.032ZM12.1047 29.7003L12.2487 29.4123L11.1753 28.8757L11.0313 29.1637L12.1047 29.7003ZM12.2361 28.8519L3.59611 13.3479L2.54789 13.9321L11.1879 29.4361L12.2361 28.8519ZM3.59614 13.348C2.36315 11.1349 1.8 9.42052 1.8 8.168H0.6C0.6 9.73147 1.28485 11.6651 2.54786 13.932L3.59614 13.348ZM1.8 8.168C1.8 6.58706 2.13028 5.30692 2.75462 4.29506C3.37649 3.28721 4.31633 2.50267 5.61082 1.95214L5.14118 0.847857C3.65167 1.48133 2.50351 2.41679 1.73338 3.66493C0.965718 4.90907 0.6 6.42093 0.6 8.168H1.8ZM29.5223 29.432L29.0698 29.8261L29.2492 30.032H29.5223V29.432ZM37.9702 29.432H38.5703V28.832H37.9702V29.432ZM37.9702 35V35.6H38.5703V35H37.9702ZM25.7782 35L25.3674 35.4373L25.5406 35.6H25.7782V35ZM20.9783 27.464L21.5432 27.2618L20.9783 27.464ZM21.1702 8.792L21.7257 9.01895L21.1702 8.792ZM26.5942 1.4V0.799997H26.3811L26.2157 0.934519L26.5942 1.4ZM37.9702 1.4H38.5703V0.799997H37.9702V1.4ZM37.9702 7.16V7.76H38.5703V7.16H37.9702ZM29.5223 7.16V6.56H29.2492L29.0698 6.76593L29.5223 7.16ZM27.2663 11.96L26.6899 11.7929L26.6878 11.8007L27.2663 11.96ZM27.2663 24.632L26.6877 24.7913L26.69 24.799L27.2663 24.632ZM29.5223 30.032H37.9702V28.832H29.5223V30.032ZM37.3703 29.432V35H38.5703V29.432H37.3703ZM37.9702 34.4H25.7782V35.6H37.9702V34.4ZM26.1891 34.5627C24.1539 32.6509 22.6028 30.2227 21.5432 27.2618L20.4133 27.6662C21.5297 30.7853 23.1786 33.3811 25.3674 35.4373L26.1891 34.5627ZM21.5432 27.2618C20.4782 24.2861 19.9463 21.2345 19.9463 18.104H18.7463C18.7463 21.3735 19.3023 24.5619 20.4133 27.6662L21.5432 27.2618ZM19.9463 18.104C19.9463 14.9494 20.5393 11.9225 21.7257 9.01895L20.6148 8.56505C19.3692 11.6135 18.7463 14.7946 18.7463 18.104H19.9463ZM21.7257 9.01895C22.9052 6.13223 24.654 3.7515 26.9728 1.86548L26.2157 0.934519C23.7345 2.95249 21.8673 5.49977 20.6148 8.56505L21.7257 9.01895ZM26.5942 2H37.9702V0.799997H26.5942V2ZM37.3703 1.4V7.16H38.5703V1.4H37.3703ZM37.9702 6.56H29.5223V7.76H37.9702V6.56ZM29.0698 6.76593C28.1206 7.8557 27.3387 9.55475 26.69 11.793L27.8425 12.127C28.4738 9.94924 29.1959 8.4483 29.9747 7.55407L29.0698 6.76593ZM26.6878 11.8007C26.0674 14.0537 25.7543 16.2195 25.7543 18.296H26.9543C26.9543 16.3405 27.2491 14.2823 27.8447 12.1193L26.6878 11.8007ZM25.7543 18.296C25.7543 20.3725 26.0674 22.5383 26.6878 24.7913L27.8447 24.4727C27.2491 22.3097 26.9543 20.2514 26.9543 18.296H25.7543ZM26.69 24.799C27.3387 27.0372 28.1206 28.7363 29.0698 29.8261L29.9747 29.0379C29.1959 28.1437 28.4738 26.6428 27.8425 24.465L26.69 24.799ZM49.7955 29.432L49.3532 29.8374L49.5316 30.032H49.7955V29.432ZM53.8275 29.432V30.032H54.0914L54.2698 29.8374L53.8275 29.432ZM55.3155 27.128L54.7583 26.9051L54.7537 26.9173L55.3155 27.128ZM55.7955 1.4V0.799997H55.1955V1.4H55.7955ZM62.3715 1.4H62.9715V0.799997H62.3715V1.4ZM62.2275 25.064L61.6307 25.0023L61.6297 25.0117L61.629 25.0213L62.2275 25.064ZM61.6515 28.376L61.0686 28.2338L61.0671 28.2399L61.6515 28.376ZM57.1395 35V35.6H57.3589L57.5265 35.4585L57.1395 35ZM46.4835 35L46.1036 35.4644L46.2693 35.6H46.4835V35ZM41.9715 28.376L42.5568 28.2433L42.5541 28.2327L41.9715 28.376ZM41.2515 1.4V0.799997H40.6515V1.4H41.2515ZM47.8275 1.4H48.4275V0.799997H47.8275V1.4ZM48.2595 27.128L47.695 27.3312L47.7 27.3451L47.7057 27.3588L48.2595 27.128ZM49.7955 30.032H53.8275V28.832H49.7955V30.032ZM54.2698 29.8374C55.0123 29.0275 55.5561 28.1952 55.8773 27.3387L54.7537 26.9173C54.4989 27.5968 54.0507 28.3005 53.3852 29.0266L54.2698 29.8374ZM55.8726 27.3508C56.235 26.4448 56.3955 25.1861 56.3955 23.624H55.1955C55.1955 25.1339 55.036 26.2112 54.7584 26.9052L55.8726 27.3508ZM56.3955 23.624V1.4H55.1955V23.624H56.3955ZM55.7955 2H62.3715V0.799997H55.7955V2ZM61.7715 1.4V21.224H62.9715V1.4H61.7715ZM61.7715 21.224C61.7715 22.8482 61.7236 24.1044 61.6307 25.0023L62.8243 25.1257C62.9234 24.1676 62.9715 22.8638 62.9715 21.224H61.7715ZM61.629 25.0213C61.5683 25.8715 61.3842 26.9399 61.0686 28.2338L62.2344 28.5182C62.5588 27.188 62.7587 26.0485 62.826 25.1067L61.629 25.0213ZM61.0671 28.2399C60.5611 30.413 59.1513 32.5165 56.7525 34.5415L57.5265 35.4585C60.0557 33.3235 61.6539 31.011 62.2359 28.5121L61.0671 28.2399ZM57.1395 34.4H46.4835V35.6H57.1395V34.4ZM46.8634 34.5356C44.4723 32.5792 43.0634 30.4791 42.5567 28.2434L41.3863 28.5086C41.9676 31.0729 43.5667 33.3888 46.1036 35.4644L46.8634 34.5356ZM42.5541 28.2327C42.0892 26.3421 41.8515 24.0094 41.8515 21.224H40.6515C40.6515 24.0706 40.8938 26.5059 41.3889 28.5193L42.5541 28.2327ZM41.8515 21.224V1.4H40.6515V21.224H41.8515ZM41.2515 2H47.8275V0.799997H41.2515V2ZM47.2275 1.4V23.624H48.4275V1.4H47.2275ZM47.2275 23.624C47.2275 25.1828 47.3717 26.4333 47.695 27.3312L48.824 26.9248C48.5713 26.2227 48.4275 25.1372 48.4275 23.624H47.2275ZM47.7057 27.3588C48.0582 28.2049 48.6136 29.0305 49.3532 29.8374L50.2378 29.0266C49.5695 28.2975 49.1008 27.5871 48.8133 26.8972L47.7057 27.3588ZM66.7571 35H66.1571V35.6H66.7571V35ZM66.7571 1.4V0.799997H66.1571V1.4H66.7571ZM80.4371 1.4L80.644 0.836796L80.5438 0.799997H80.4371V1.4ZM84.6131 4.424L84.1547 4.81111L84.6131 4.424ZM82.8851 17.24L82.5734 16.7273L82.2851 16.9026V17.24H82.8851ZM82.8851 17.432H82.2851V17.7854L82.5942 17.9568L82.8851 17.432ZM81.2051 35V35.6H81.3802L81.5278 35.5059L81.2051 35ZM73.2851 15.272H72.6851V15.872H73.2851V15.272ZM78.0371 15.272V15.872H78.2065L78.3509 15.7834L78.0371 15.272ZM78.1811 7.16L78.5503 6.68701L78.3876 6.56H78.1811V7.16ZM73.2851 7.16V6.56H72.6851V7.16H73.2851ZM73.2851 29.432H72.6851V30.032H73.2851V29.432ZM78.2291 29.432V30.032H78.4231L78.5804 29.9184L78.2291 29.432ZM79.7651 27.464L79.2362 27.1807L79.2322 27.1881L79.2285 27.1957L79.7651 27.464ZM79.9091 22.328L80.4411 22.0505L79.9091 22.328ZM78.4691 20.696L78.782 20.184L78.6379 20.096H78.4691V20.696ZM73.2851 20.696V20.096H72.6851V20.696H73.2851ZM67.3571 35V1.4H66.1571V35H67.3571ZM66.7571 2H80.4371V0.799997H66.7571V2ZM80.2302 1.9632C81.6885 2.4989 82.9971 3.44024 84.1547 4.81111L85.0715 4.03689C83.7972 2.52776 82.3217 1.4531 80.644 0.836796L80.2302 1.9632ZM84.1547 4.81111C85.2711 6.13317 85.8371 7.73651 85.8371 9.656H87.0371C87.0371 7.47949 86.3871 5.59483 85.0715 4.03689L84.1547 4.81111ZM85.8371 9.656C85.8371 13.135 84.7081 15.4292 82.5734 16.7273L83.1969 17.7527C85.7982 16.1708 87.0371 13.409 87.0371 9.656H85.8371ZM82.2851 17.24V17.432H83.4851V17.24H82.2851ZM82.5942 17.9568C83.9843 18.7274 85.0027 19.7024 85.677 20.8751C86.3519 22.0488 86.7011 23.4538 86.7011 25.112H87.9011C87.9011 23.2822 87.5144 21.6632 86.7173 20.2769C85.9195 18.8896 84.7299 17.7686 83.176 16.9072L82.5942 17.9568ZM86.7011 25.112C86.7011 28.8628 84.8147 31.9862 80.8825 34.4941L81.5278 35.5059C85.7235 32.8298 87.9011 29.3612 87.9011 25.112H86.7011ZM81.2051 34.4H66.7571V35.6H81.2051V34.4ZM73.2851 15.872H78.0371V14.672H73.2851V15.872ZM78.3509 15.7834C79.9504 14.8019 80.7491 13.2881 80.7491 11.336H79.5491C79.5491 12.9039 78.9399 14.0141 77.7233 14.7606L78.3509 15.7834ZM80.7491 11.336C80.7491 9.40351 80.0174 7.83208 78.5503 6.68701L77.812 7.63299C78.9688 8.53592 79.5491 9.74849 79.5491 11.336H80.7491ZM78.1811 6.56H73.2851V7.76H78.1811V6.56ZM72.6851 7.16V15.272H73.8851V7.16H72.6851ZM73.2851 30.032H78.2291V28.832H73.2851V30.032ZM78.5804 29.9184C79.2604 29.4273 79.8272 28.6815 80.3018 27.7323L79.2285 27.1957C78.8071 28.0385 78.3499 28.6047 77.8778 28.9456L78.5804 29.9184ZM80.294 27.7473C80.8143 26.776 81.0851 25.7835 81.0851 24.776H79.8851C79.8851 25.5605 79.6759 26.36 79.2362 27.1807L80.294 27.7473ZM81.0851 24.776C81.0851 23.7912 80.8733 22.8788 80.4411 22.0505L79.3772 22.6055C79.713 23.2492 79.8851 23.9688 79.8851 24.776H81.0851ZM80.4411 22.0505C80.0182 21.24 79.4702 20.6046 78.782 20.184L78.1563 21.208C78.6201 21.4914 79.032 21.944 79.3772 22.6055L80.4411 22.0505ZM78.4691 20.096H73.2851V21.296H78.4691V20.096ZM72.6851 20.696V29.432H73.8851V20.696H72.6851ZM105.108 35L104.518 35.1115L104.611 35.6H105.108V35ZM104.1 29.672L104.69 29.5605L104.597 29.072H104.1V29.672ZM96.516 29.672V29.072H96.0189L95.9265 29.5605L96.516 29.672ZM95.508 35V35.6H96.0051L96.0975 35.1115L95.508 35ZM88.98 35L88.3909 34.8864L88.2532 35.6H88.98V35ZM95.46 1.4V0.799997H94.9647L94.8709 1.28638L95.46 1.4ZM105.396 1.4L105.986 1.29207L105.896 0.799997H105.396V1.4ZM111.54 35V35.6H112.26L112.13 34.8921L111.54 35ZM100.212 7.64V7.04H99.7041L99.6202 7.54095L100.212 7.64ZM98.34 18.824L98.9301 18.9331L98.9318 18.923L98.34 18.824ZM97.284 24.536L96.694 24.4269L96.5629 25.136H97.284V24.536ZM103.284 24.536V25.136H104.011L103.873 24.4221L103.284 24.536ZM102.18 18.824L101.588 18.923L101.589 18.9305L101.591 18.9379L102.18 18.824ZM100.308 7.64L100.9 7.54095L100.816 7.04H100.308V7.64ZM105.698 34.8885L104.69 29.5605L103.51 29.7835L104.518 35.1115L105.698 34.8885ZM104.1 29.072H96.516V30.272H104.1V29.072ZM95.9265 29.5605L94.9185 34.8885L96.0975 35.1115L97.1055 29.7835L95.9265 29.5605ZM95.508 34.4H88.98V35.6H95.508V34.4ZM89.5691 35.1136L96.0491 1.51362L94.8709 1.28638L88.3909 34.8864L89.5691 35.1136ZM95.46 2H105.396V0.799997H95.46V2ZM104.806 1.50792L110.95 35.1079L112.13 34.8921L105.986 1.29207L104.806 1.50792ZM111.54 34.4H105.108V35.6H111.54V34.4ZM99.6202 7.54095L97.7482 18.7249L98.9318 18.923L100.804 7.73905L99.6202 7.54095ZM97.75 18.7149L96.694 24.4269L97.874 24.6451L98.93 18.9331L97.75 18.7149ZM97.284 25.136H103.284V23.936H97.284V25.136ZM103.873 24.4221L102.769 18.7101L101.591 18.9379L102.695 24.6499L103.873 24.4221ZM102.772 18.7249L100.9 7.54095L99.7162 7.73905L101.588 18.923L102.772 18.7249ZM100.308 7.04H100.212V8.24H100.308V7.04ZM125.095 1.4V0.799997H124.972L124.86 0.847857L125.095 1.4ZM136.615 1.4H137.215V0.799997H136.615V1.4ZM136.615 7.16V7.76H137.215V7.16H136.615ZM127.399 7.16V6.56H127.028L126.862 6.89167L127.399 7.16ZM127.255 7.448L126.718 7.17967L126.578 7.46074L126.729 7.73632L127.255 7.448ZM134.935 21.464L134.409 21.7523L134.411 21.7559L134.935 21.464ZM134.071 35V35.6H134.26L134.415 35.4912L134.071 35ZM121.351 35H120.751V35.6H121.351V35ZM121.351 29.432V28.832H120.751V29.432H121.351ZM131.287 29.432V30.032H131.658L131.823 29.7003L131.287 29.432ZM131.431 29.144L131.967 29.4123L132.109 29.1288L131.955 28.8519L131.431 29.144ZM122.791 13.64L122.267 13.932L122.267 13.9321L122.791 13.64ZM125.095 2H136.615V0.799997H125.095V2ZM136.015 1.4V7.16H137.215V1.4H136.015ZM136.615 6.56H127.399V7.76H136.615V6.56ZM126.862 6.89167L126.718 7.17967L127.791 7.71633L127.935 7.42833L126.862 6.89167ZM126.729 7.73632L134.409 21.7523L135.461 21.1757L127.781 7.15968L126.729 7.73632ZM134.411 21.7559C135.975 24.5652 136.687 26.591 136.687 27.896H137.887C137.887 26.257 137.031 23.9948 135.459 21.1721L134.411 21.7559ZM136.687 27.896C136.687 30.9841 135.672 33.1438 133.726 34.5088L134.415 35.4912C136.757 33.8482 137.887 31.2719 137.887 27.896H136.687ZM134.071 34.4H121.351V35.6H134.071V34.4ZM121.951 35V29.432H120.751V35H121.951ZM121.351 30.032H131.287V28.832H121.351V30.032ZM131.823 29.7003L131.967 29.4123L130.894 28.8757L130.75 29.1637L131.823 29.7003ZM131.955 28.8519L123.315 13.3479L122.267 13.9321L130.907 29.4361L131.955 28.8519ZM123.315 13.348C122.082 11.1349 121.519 9.42052 121.519 8.168H120.319C120.319 9.73147 121.004 11.6651 122.267 13.932L123.315 13.348ZM121.519 8.168C121.519 6.58706 121.849 5.30692 122.473 4.29506C123.095 3.28721 124.035 2.50267 125.33 1.95214L124.86 0.847857C123.37 1.48133 122.222 2.41679 121.452 3.66493C120.684 4.90907 120.319 6.42093 120.319 8.168H121.519ZM140.632 35H140.032V35.6H140.632V35ZM140.632 1.4V0.799997H140.032V1.4H140.632ZM157.864 1.4H158.464V0.799997H157.864V1.4ZM157.864 7.16V7.76H158.464V7.16H157.864ZM147.208 7.16V6.56H146.608V7.16H147.208ZM147.208 15.176H146.608V15.776H147.208V15.176ZM156.712 15.176H157.312V14.576H156.712V15.176ZM156.712 20.744V21.344H157.312V20.744H156.712ZM147.208 20.744V20.144H146.608V20.744H147.208ZM147.208 29.432H146.608V30.032H147.208V29.432ZM158.056 29.432H158.656V28.832H158.056V29.432ZM158.056 35V35.6H158.656V35H158.056ZM141.232 35V1.4H140.032V35H141.232ZM140.632 2H157.864V0.799997H140.632V2ZM157.264 1.4V7.16H158.464V1.4H157.264ZM157.864 6.56H147.208V7.76H157.864V6.56ZM146.608 7.16V15.176H147.808V7.16H146.608ZM147.208 15.776H156.712V14.576H147.208V15.776ZM156.112 15.176V20.744H157.312V15.176H156.112ZM156.712 20.144H147.208V21.344H156.712V20.144ZM146.608 20.744V29.432H147.808V20.744H146.608ZM147.208 30.032H158.056V28.832H147.208V30.032ZM157.456 29.432V35H158.656V29.432H157.456ZM158.056 34.4H140.632V35.6H158.056V34.4ZM176.749 35L176.209 35.261L176.372 35.6H176.749V35ZM167.773 16.424L168.313 16.163L168.07 15.6591L167.55 15.8669L167.773 16.424ZM167.533 16.52L167.31 15.9629L166.912 16.1222L166.934 16.5505L167.533 16.52ZM167.821 22.184H168.421V22.1688L168.42 22.1535L167.821 22.184ZM167.821 35V35.6H168.421V35H167.821ZM161.773 35H161.173V35.6H161.773V35ZM161.773 1.4V0.799997H161.173V1.4H161.773ZM166.621 1.4L167.166 1.15029L167.006 0.799997H166.621V1.4ZM175.453 20.696L174.907 20.9457L175.145 21.4653L175.676 21.2531L175.453 20.696ZM175.693 20.6L175.916 21.1571L176.33 20.9913L176.29 20.5466L175.693 20.6ZM175.165 14.696H174.565V14.7228L174.567 14.7494L175.165 14.696ZM175.165 1.4V0.799997H174.565V1.4H175.165ZM181.213 1.4H181.813V0.799997H181.213V1.4ZM181.213 35V35.6H181.813V35H181.213ZM177.289 34.739L168.313 16.163L167.233 16.685L176.209 35.261L177.289 34.739ZM167.55 15.8669L167.31 15.9629L167.756 17.0771L167.996 16.9811L167.55 15.8669ZM166.934 16.5505L167.222 22.2145L168.42 22.1535L168.132 16.4895L166.934 16.5505ZM167.221 22.184V35H168.421V22.184H167.221ZM167.821 34.4H161.773V35.6H167.821V34.4ZM162.373 35V1.4H161.173V35H162.373ZM161.773 2H166.621V0.799997H161.773V2ZM166.075 1.64971L174.907 20.9457L175.998 20.4463L167.166 1.15029L166.075 1.64971ZM175.676 21.2531L175.916 21.1571L175.47 20.0429L175.23 20.1389L175.676 21.2531ZM176.29 20.5466L175.762 14.6426L174.567 14.7494L175.095 20.6534L176.29 20.5466ZM175.765 14.696V1.4H174.565V14.696H175.765ZM175.165 2H181.213V0.799997H175.165V2ZM180.613 1.4V35H181.813V1.4H180.613ZM181.213 34.4H176.749V35.6H181.213V34.4ZM192.396 35V35.6H192.996V35H192.396ZM185.82 35H185.22V35.6H185.82V35ZM185.82 1.4V0.799997H185.22V1.4H185.82ZM192.396 1.4H192.996V0.799997H192.396V1.4ZM192.396 14.936H191.796V15.536H192.396V14.936ZM200.076 14.936V15.536H200.676V14.936H200.076ZM200.076 1.4V0.799997H199.476V1.4H200.076ZM206.652 1.4H207.252V0.799997H206.652V1.4ZM206.652 35V35.6H207.252V35H206.652ZM200.076 35H199.476V35.6H200.076V35ZM200.076 21.08H200.676V20.48H200.076V21.08ZM192.396 21.08V20.48H191.796V21.08H192.396ZM192.396 34.4H185.82V35.6H192.396V34.4ZM186.42 35V1.4H185.22V35H186.42ZM185.82 2H192.396V0.799997H185.82V2ZM191.796 1.4V14.936H192.996V1.4H191.796ZM192.396 15.536H200.076V14.336H192.396V15.536ZM200.676 14.936V1.4H199.476V14.936H200.676ZM200.076 2H206.652V0.799997H200.076V2ZM206.052 1.4V35H207.252V1.4H206.052ZM206.652 34.4H200.076V35.6H206.652V34.4ZM200.676 35V21.08H199.476V35H200.676ZM200.076 20.48H192.396V21.68H200.076V20.48ZM191.796 21.08V35H192.996V21.08H191.796ZM225.577 35L224.987 35.1115L225.08 35.6H225.577V35ZM224.569 29.672L225.158 29.5605L225.066 29.072H224.569V29.672ZM216.985 29.672V29.072H216.488L216.395 29.5605L216.985 29.672ZM215.977 35V35.6H216.474L216.566 35.1115L215.977 35ZM209.449 35L208.86 34.8864L208.722 35.6H209.449V35ZM215.929 1.4V0.799997H215.433L215.34 1.28638L215.929 1.4ZM225.865 1.4L226.455 1.29207L226.365 0.799997H225.865V1.4ZM232.009 35V35.6H232.728L232.599 34.8921L232.009 35ZM220.681 7.64V7.04H220.173L220.089 7.54095L220.681 7.64ZM218.809 18.824L219.399 18.9331L219.401 18.923L218.809 18.824ZM217.753 24.536L217.163 24.4269L217.032 25.136H217.753V24.536ZM223.753 24.536V25.136H224.48L224.342 24.4221L223.753 24.536ZM222.649 18.824L222.057 18.923L222.058 18.9305L222.06 18.9379L222.649 18.824ZM220.777 7.64L221.369 7.54095L221.285 7.04H220.777V7.64ZM226.166 34.8885L225.158 29.5605L223.979 29.7835L224.987 35.1115L226.166 34.8885ZM224.569 29.072H216.985V30.272H224.569V29.072ZM216.395 29.5605L215.387 34.8885L216.566 35.1115L217.574 29.7835L216.395 29.5605ZM215.977 34.4H209.449V35.6H215.977V34.4ZM210.038 35.1136L216.518 1.51362L215.34 1.28638L208.86 34.8864L210.038 35.1136ZM215.929 2H225.865V0.799997H215.929V2ZM225.275 1.50792L231.419 35.1079L232.599 34.8921L226.455 1.29207L225.275 1.50792ZM232.009 34.4H225.577V35.6H232.009V34.4ZM220.089 7.54095L218.217 18.7249L219.401 18.923L221.273 7.73905L220.089 7.54095ZM218.219 18.7149L217.163 24.4269L218.343 24.6451L219.399 18.9331L218.219 18.7149ZM217.753 25.136H223.753V23.936H217.753V25.136ZM224.342 24.4221L223.238 18.7101L222.06 18.9379L223.164 24.6499L224.342 24.4221ZM223.241 18.7249L221.369 7.54095L220.185 7.73905L222.057 18.923L223.241 18.7249ZM220.777 7.04H220.681V8.24H220.777V7.04Z" fill="#0250BE"/>
</svg>
